<?xml version="1.0" encoding="utf-8"?>
<!-- Generator: Adobe Illustrator 23.0.6, SVG Export Plug-In . SVG Version: 6.00 Build 0)  -->
<svg version="1.1" id="Layer_1" xmlns="http://www.w3.org/2000/svg" xmlns:xlink="http://www.w3.org/1999/xlink" x="0px" y="0px"
	 viewBox="0 0 300 300" style="enable-background:new 0 0 300 300;" xml:space="preserve">
<style type="text/css">
	.st0{fill:#00C0F3;}
</style>
<g>
	<g>
		<path class="st0" d="M38.5,37.7c-1.7-1.1-3.4-1.6-5.1-1.6c-1.6,0-3.1,0.4-4.5,1.3c-1.3,0.9-2.4,2.1-3.1,3.6s-1.1,3.2-1.1,5.2
			s0.4,3.7,1.1,5.2s1.8,2.8,3.1,3.6c1.3,0.9,2.8,1.3,4.5,1.3c1.5,0,3.1-0.5,4.9-1.4c1.7-0.9,3.3-2.1,4.6-3.6l8,8.6
			c-2.4,2.6-5.2,4.7-8.5,6.2s-6.6,2.3-9.8,2.3c-4.2,0-8.1-1-11.4-2.8c-3.4-1.9-6-4.5-8-7.9c-1.9-3.4-2.9-7.2-2.9-11.4
			s1-7.9,2.9-11.2c2-3.3,4.7-5.9,8.1-7.8c3.5-1.9,7.4-2.8,11.7-2.8c3.2,0,6.4,0.7,9.7,2.1c3.2,1.4,5.9,3.3,8.1,5.7l-8,9.5
			C41.8,40.1,40.3,38.7,38.5,37.7z"/>
		<path class="st0" d="M55.1,22.9h13.5v44.5H55.1V22.9z"/>
	</g>
	<g>
		<path class="st0" d="M256.2,37.7c-1.7-1.1-3.4-1.6-5.1-1.6c-1.6,0-3.1,0.4-4.5,1.3c-1.3,0.9-2.4,2.1-3.1,3.6
			c-0.7,1.5-1.1,3.2-1.1,5.2s0.4,3.7,1.1,5.2c0.7,1.5,1.8,2.8,3.1,3.6c1.3,0.9,2.8,1.3,4.5,1.3c1.5,0,3.1-0.5,4.9-1.4
			c1.7-0.9,3.3-2.1,4.7-3.6l8,8.6c-2.4,2.6-5.2,4.7-8.5,6.2s-6.6,2.3-9.8,2.3c-4.2,0-8.1-1-11.4-2.8c-3.4-1.9-6-4.5-8-7.9
			c-1.9-3.4-2.9-7.2-2.9-11.4s1-7.9,2.9-11.2c2-3.3,4.7-5.9,8.1-7.8c3.5-1.9,7.4-2.8,11.7-2.8c3.2,0,6.4,0.7,9.7,2.1
			c3.2,1.4,5.9,3.3,8.1,5.7l-8,9.5C259.4,40.1,257.9,38.7,256.2,37.7z"/>
		<path class="st0" d="M272.7,22.9h13.5v44.5h-13.5V22.9z"/>
	</g>
</g>
<g>
	<g>
		<path class="st0" d="M38.5,242.7c-1.7-1.1-3.4-1.6-5.1-1.6c-1.6,0-3.1,0.4-4.5,1.3c-1.3,0.9-2.4,2.1-3.1,3.6s-1.1,3.2-1.1,5.2
			s0.4,3.7,1.1,5.2s1.8,2.8,3.1,3.6c1.3,0.9,2.8,1.3,4.5,1.3c1.5,0,3.1-0.5,4.9-1.4c1.7-0.9,3.3-2.1,4.6-3.6l8,8.6
			c-2.4,2.6-5.2,4.7-8.5,6.2s-6.6,2.3-9.8,2.3c-4.2,0-8.1-1-11.4-2.8c-3.4-1.9-6-4.5-8-7.9c-1.9-3.4-2.9-7.2-2.9-11.4
			s1-7.9,2.9-11.2c2-3.3,4.7-5.9,8.1-7.8c3.5-1.9,7.4-2.8,11.7-2.8c3.2,0,6.4,0.7,9.7,2.1c3.2,1.4,5.9,3.3,8.1,5.7l-8,9.5
			C41.8,245.1,40.3,243.7,38.5,242.7z"/>
		<path class="st0" d="M55.1,227.9h13.5v44.5H55.1V227.9z"/>
	</g>
	<g>
		<path class="st0" d="M256.2,242.7c-1.7-1.1-3.4-1.6-5.1-1.6c-1.6,0-3.1,0.4-4.5,1.3c-1.3,0.9-2.4,2.1-3.1,3.6
			c-0.7,1.5-1.1,3.2-1.1,5.2s0.4,3.7,1.1,5.2c0.7,1.5,1.8,2.8,3.1,3.6c1.3,0.9,2.8,1.3,4.5,1.3c1.5,0,3.1-0.5,4.9-1.4
			c1.7-0.9,3.3-2.1,4.7-3.6l8,8.6c-2.4,2.6-5.2,4.7-8.5,6.2s-6.6,2.3-9.8,2.3c-4.2,0-8.1-1-11.4-2.8s-6-4.5-8-7.9
			c-1.9-3.4-2.9-7.2-2.9-11.4s1-7.9,2.9-11.2c2-3.3,4.7-5.9,8.1-7.8c3.5-1.9,7.4-2.8,11.7-2.8c3.2,0,6.4,0.7,9.7,2.1
			c3.2,1.4,5.9,3.3,8.1,5.7l-8,9.5C259.4,245.1,257.9,243.7,256.2,242.7z"/>
		<path class="st0" d="M272.7,227.9h13.5v44.5h-13.5V227.9z"/>
	</g>
</g>
<g>
	<polygon class="st0" points="62.8,150 33.8,87.1 42.8,82.9 56.2,111.9 47.2,116.1 	"/>
	<polygon class="st0" points="237.2,150 252.8,116 243.8,111.8 257.2,82.9 266.2,87.1 	"/>
	<polygon class="st0" points="237.2,150 237.2,150 237.2,150 	"/>
</g>
<g>
	<polygon class="st0" points="47.2,183.9 56.2,188.1 42.8,217.1 33.8,212.9 62.8,150 	"/>
	<polygon class="st0" points="266.2,212.9 257.2,217.1 243.8,188.2 252.8,184 237.2,150 	"/>
	<polygon class="st0" points="237.2,150 237.2,150 237.2,150 	"/>
</g>
<g>
	<rect x="92.7" y="109" width="114.6" height="10"/>
</g>
<g>
	<polygon points="56.2,111.9 71.5,145 56.2,111.9 	"/>
	<polygon points="243.8,111.8 228.5,145 243.8,111.8 	"/>
</g>
<g>
	<polygon points="237.2,150 252.8,184 243.8,188.2 228.5,155 71.5,155 56.2,188.1 47.2,183.9 62.8,150 62.8,150 47.2,116.1 
		56.2,111.9 71.5,145 228.5,145 243.8,111.8 252.8,116 237.2,150 237.2,150 	"/>
	<polygon points="71.5,155 56.2,188.1 56.2,188.1 	"/>
	<polygon points="243.8,188.2 243.8,188.2 228.5,155 	"/>
</g>
</svg>
